<?xml version="1.0" encoding="utf-8"?>
<!-- Generator: Adobe Illustrator 19.1.0, SVG Export Plug-In . SVG Version: 6.00 Build 0)  -->
<svg version="1.1" id="Layer_1" xmlns="http://www.w3.org/2000/svg" xmlns:xlink="http://www.w3.org/1999/xlink" x="0px" y="0px"
	 viewBox="0 0 350 54.5" style="enable-background:new 0 0 350 54.5;" xml:space="preserve">
<style type="text/css">
	.st0{fill:#4D4D4F;}
	.st1{fill:#A6A8AB;}
	.st2{fill:#BBBDBF;}
	.st3{fill:#6D6E70;}
	.st4{fill:#929497;}
	.st5{fill:#FE5000;}
	.st6{fill:#404041;}
</style>
<g>
	<g>
		<g>
			<polygon class="st0" points="20.9,30.4 20.9,54.5 0,42.4 			"/>
			<polygon class="st1" points="20.9,6.3 20.9,30.4 0,18.3 20.9,6.3 			"/>
			<polyline class="st2" points="20.9,30.4 41.8,42.4 41.8,18.3 20.9,30.4 			"/>
			<polyline class="st3" points="20.9,30.4 0,42.4 0,18.3 20.9,30.4 			"/>
			<polyline class="st4" points="20.9,30.4 20.9,54.5 41.8,42.4 20.9,30.4 			"/>
		</g>
		<path class="st5" d="M24.5,9.1c-0.1-1.6,0.3-3.2,1.2-4.7c2.4-4.2,7.8-5.6,12-3.2s5.6,7.8,3.2,12c-0.9,1.5-2.1,2.6-3.5,3.4
			l-12.9,7.4L24.5,9.1z M37.5,11.2c1.4-2.4,0.6-5.4-1.8-6.7C33.4,3.1,30.4,4,29,6.3c-0.5,0.8-0.7,1.7-0.7,2.6
			c0.1,1.6,0.9,3.2,2.5,4.1c1.5,0.9,3.3,0.9,4.8,0.1C36.4,12.7,37.1,12.1,37.5,11.2z"/>
	</g>
	<g>
		<g>
			<path class="st6" d="M274.2,48.7c0.8,0,1.7,0,2.5,0c1,0,2,0,2.1,0c0.2,0,0.3-0.2,0.4-0.3c0-0.1,0.1-0.2,0-0.2
				c-0.8-1.6-5.2-10.2-6.6-12.8l-0.1-0.3l0.3-0.1c1-0.4,1.9-1,2.7-1.7c1.7-1.6,2.8-3.5,3.3-5.8c0.3-1.7,0.4-3.2,0.1-4.7
				c-0.5-2.8-1.9-5.1-4.1-6.7c-1.7-1.2-3.4-1.8-5.1-1.9h-16.4c-0.6,0-0.7,0.1-0.7,0.7v33c0,0.6,0.1,0.7,0.7,0.7h5
				c0.6,0,0.7-0.1,0.7-0.7V35.8h5.7c0.4,0,0.7,0.1,0.9,0.5c0.1,0.2,0.9,1.7,1.8,3.6c1.3,2.6,3.1,6.1,4.1,8c0.3,0.6,0.6,0.8,1.2,0.8
				C273.1,48.7,273.6,48.7,274.2,48.7z M259,29.9V20h9.2c2,0.1,3.6,1.3,4.1,3.3c0.4,1.5,0.3,2.9-0.2,4.2c-0.7,1.6-2,2.5-3.6,2.5l0,0
				C267.6,30,259,29.9,259,29.9z"/>
		</g>
		<g>
			<path class="st6" d="M104.6,14.2c-0.6,0-0.7,0.1-0.7,0.7v33c0,0.6,0.1,0.7,0.7,0.7H127c0.6,0,0.7-0.1,0.7-0.7v-4.3
				c0-0.6-0.1-0.7-0.7-0.7h-16.7v-8.7h13.3c0.6,0,0.7-0.1,0.7-0.7v-4.1c0-0.6-0.1-0.7-0.7-0.7h-13.3v-8.7H127c0.6,0,0.7-0.1,0.7-0.7
				v-4.3c0-0.6-0.1-0.7-0.7-0.7H104.6z"/>
		</g>
		<g>
			<path class="st6" d="M326.9,14.2c-0.6,0-0.7,0.1-0.7,0.7v33c0,0.6,0.1,0.7,0.7,0.7h22.4c0.6,0,0.7-0.1,0.7-0.7v-4.3
				c0-0.6-0.1-0.7-0.7-0.7h-16.7v-8.7h13.3c0.6,0,0.7-0.1,0.7-0.7v-4.1c0-0.6-0.1-0.7-0.7-0.7h-13.3v-8.7h16.7
				c0.6,0,0.7-0.1,0.7-0.7v-4.3c0-0.6-0.1-0.7-0.7-0.7H326.9z"/>
		</g>
		<g>
			<path class="st6" d="M149.7,13.8c-9.7,0-17.6,7.9-17.6,17.7s7.9,17.7,17.6,17.7s17.6-7.9,17.6-17.7S159.4,13.8,149.7,13.8z
				 M149.7,43.3c-6.2,0-11.2-5.3-11.2-11.9s5-11.9,11.2-11.9c6.2,0,11.2,5.3,11.2,11.9S155.9,43.3,149.7,43.3z"/>
		</g>
		<g>
			<path class="st6" d="M228.2,13.8c-9.7,0-17.6,7.9-17.6,17.7s7.9,17.7,17.6,17.7s17.6-7.9,17.6-17.7S237.9,13.8,228.2,13.8z
				 M228.2,43.3C222,43.3,217,38,217,31.5s5-11.9,11.2-11.9c6.2,0,11.2,5.3,11.2,11.9S234.4,43.3,228.2,43.3z"/>
		</g>
		<g>
			<path class="st6" d="M80.2,13.8c-9.7,0-17.6,7.9-17.6,17.7s7.9,17.7,17.6,17.7s17.6-7.9,17.6-17.7v-2.1c0-0.6-0.1-0.7-0.7-0.7
				H79.6c-0.6,0-0.7,0.1-0.7,0.7v4.1c0,0.3,0,0.5,0.1,0.6c0.1,0.1,0.3,0.1,0.6,0.1h11.5L91,34.8c-1.4,5-5.8,8.5-10.8,8.5
				C74.1,43.3,69,38,69,31.5s5-11.9,11.2-11.9c2.7,0,5.3,1,7.3,2.8c0.5,0.5,0.7,0.5,1.1,0l3.2-3.2c0.5-0.5,0.5-0.6,0-1.1
				C88.6,15.3,84.5,13.8,80.2,13.8z"/>
		</g>
		<g>
			<path class="st6" d="M302.6,13.8c-9.7,0-17.6,7.9-17.6,17.7s7.9,17.7,17.6,17.7s17.6-7.9,17.6-17.7v-2.1c0-0.6-0.1-0.7-0.7-0.7
				h-17.5c-0.6,0-0.7,0.1-0.7,0.7v4.1c0,0.3,0,0.5,0.1,0.6c0.1,0.1,0.3,0.1,0.6,0.1h11.5l-0.1,0.6c-1.4,5-5.8,8.5-10.8,8.5
				c-6.2,0-11.2-5.3-11.2-11.9s5-11.9,11.2-11.9c2.7,0,5.3,1,7.3,2.8c0.5,0.5,0.7,0.5,1.1,0l3.2-3.2c0.5-0.5,0.5-0.6,0-1.1
				C311,15.3,306.8,13.8,302.6,13.8z"/>
		</g>
		<g>
			<path class="st6" d="M180.9,26c0.1,0,0.1,0,0.2,0.1c2.2,1.4,12.7,8.3,15.6,10.2c0.4,0.3,0.6,0.6,0.6,1.1v10.7
				c0,0.6,0.1,0.7,0.7,0.7h5c0.6,0,0.7-0.1,0.7-0.7v-33c0-0.6-0.1-0.7-0.7-0.7h-5c-0.6,0-0.7,0.1-0.7,0.7v14.2l-22.5-15.2
				c-0.2-0.1-0.3-0.1-0.4-0.1c-0.1,0.1-0.2,0.2-0.2,0.4c0,0.2,0,0.6,0,0.6v33.1c0,0.6,0.1,0.7,0.7,0.7h5c0.6,0,0.7-0.1,0.7-0.7V27
				c0-0.2,0-1,0-1S180.9,26,180.9,26z"/>
		</g>
	</g>
</g>
</svg>
