<svg id="Layer_1" data-name="Layer 1" xmlns="http://www.w3.org/2000/svg" viewBox="0 0 119.94 85.89"><defs><style>.cls-1{fill:#b0b0b1;}.cls-2{fill:#1e1e1c;}.cls-3{fill:#fff;}</style></defs><title>KV_logo_staa</title><path class="cls-1" d="M77.15,2.71H42.64a3.14,3.14,0,0,0-3.14,3.14V27c2.71-2.06,6.1-4.94,12.21-3.43,5.27,1.3,6.42,5.36,14.75,10,5.1,2.82,9.89.64,13.82-1.64V5.85a3.14,3.14,0,0,0-3.14-3.14" transform="translate(-2.65 -2.71)"/><path class="cls-2" d="M69.16,43a9.92,9.92,0,0,1-4.37-1.66c-2.92-1.8-5.72-4.75-11.67-7.84-4.74-2.3-9.37-.55-13.61,1.87h0V59.09a3.14,3.14,0,0,0,3.14,3.14H77.15a3.14,3.14,0,0,0,3.14-3.14V39.75C76.6,41.86,73.07,43.57,69.16,43" transform="translate(-2.65 -2.71)"/><path class="cls-3" d="M66.47,33.55c-8.33-4.61-9.48-8.68-14.75-10-6.11-1.51-9.5,1.37-12.21,3.43v8.35c4.24-2.42,8.93-4.3,13.61-1.87,6,3.09,8.75,6,11.67,7.84A11.18,11.18,0,0,0,69.16,43c3.9,0.58,7.44-1.13,11.12-3.24V31.91c-3.93,2.28-8.71,4.46-13.82,1.64" transform="translate(-2.65 -2.71)"/><path d="M2.65,88.07V69H5v19.1H2.65Zm5-10.14,7.63,10.14H12.36L5.07,78l7.35-9h2.92Z" transform="translate(-2.65 -2.71)"/><path d="M27.55,88.6a2.85,2.85,0,0,1-1.89-2,5.18,5.18,0,0,1-4,1.87c-3.43,0-4.46-2.09-4.46-4,0-3.15,2.7-5,7.35-5,0.31,0,.53,0,1,0v-1c0-1.23-.06-1.73-0.45-2.17a2.28,2.28,0,0,0-1.87-.75,7.68,7.68,0,0,0-4.43,1.64l-1.09-1.56a10.45,10.45,0,0,1,5.82-1.87c1.92,0,3.26.75,3.84,2.17a8.22,8.22,0,0,1,.31,3.06l-0.11,4.57c-0.06,2.26.08,2.84,1.11,3.4ZM24.37,81c-3.51,0-4.76,1.2-4.76,3.31,0,1.64.81,2.53,2.39,2.53a3.8,3.8,0,0,0,3.37-2.17L25.46,81C25.18,81,24.68,81,24.37,81Z" transform="translate(-2.65 -2.71)"/><path d="M38.29,76.3a1.86,1.86,0,0,0-.61-0.11,3.31,3.31,0,0,0-2.31,1,2.5,2.5,0,0,0-.81,2.2v8.69H32.39V77.38a7.5,7.5,0,0,0-.47-3l2.17-.58a4.83,4.83,0,0,1,.45,2.25,5,5,0,0,1,3.9-2.31,2.55,2.55,0,0,1,.75.14Z" transform="translate(-2.65 -2.71)"/><path d="M47.77,75.85h-2.9v8.94c0,1.53.42,2.06,1.78,2.06A2.76,2.76,0,0,0,48,86.57L48.32,88a5.13,5.13,0,0,1-2.45.56,4,4,0,0,1-1.81-.39c-1-.47-1.34-1.36-1.34-2.76V75.85H40.92V74.21h1.81c0-1.2.17-3.06,0.22-3.51l2.28-.5a37,37,0,0,0-.28,4h3.48Z" transform="translate(-2.65 -2.71)"/><path d="M57.57,88.21H55.42l-5-13.9,2.23-.47L55.9,83.4c0.33,1,.61,2.12.67,2.37h0.06a23.71,23.71,0,0,1,.67-2.34l3.17-9.22h2.31Z" transform="translate(-2.65 -2.71)"/><path d="M67.08,81.5v0.33a5.53,5.53,0,0,0,.64,3,3.92,3.92,0,0,0,3.45,1.7,4.78,4.78,0,0,0,3.4-1.31l0.83,1.39a6.93,6.93,0,0,1-4.68,1.73c-3.84,0-6.15-2.79-6.15-7.38a7.41,7.41,0,0,1,1.67-5.24,5.45,5.45,0,0,1,7.91-.42c1.2,1.23,1.59,2.53,1.59,5.85V81.5H67.08Zm5.71-4.73a3,3,0,0,0-2.51-1.23c-2,0-3.09,1.45-3.2,4.32h6.35A6,6,0,0,0,72.79,76.77Z" transform="translate(-2.65 -2.71)"/><path d="M85.47,76.3a1.85,1.85,0,0,0-.61-0.11,3.31,3.31,0,0,0-2.31,1,2.5,2.5,0,0,0-.81,2.2v8.69H79.57V77.38a7.5,7.5,0,0,0-.47-3l2.17-.58a4.82,4.82,0,0,1,.45,2.25,5,5,0,0,1,3.9-2.31,2.55,2.55,0,0,1,.75.14Z" transform="translate(-2.65 -2.71)"/><path d="M89,88.07V71a9.05,9.05,0,0,0-.36-2.84l2.17-.42A11.81,11.81,0,0,1,91.15,71V88.07H89Zm8.63,0-6.38-7.85,5.29-6h2.73l-5.46,6,6.71,7.85h-2.9Z" transform="translate(-2.65 -2.71)"/><path d="M104.18,81.5v0.33a5.53,5.53,0,0,0,.64,3,3.92,3.92,0,0,0,3.45,1.7,4.78,4.78,0,0,0,3.4-1.31l0.83,1.39a6.93,6.93,0,0,1-4.68,1.73c-3.84,0-6.15-2.79-6.15-7.38a7.41,7.41,0,0,1,1.67-5.24,5.45,5.45,0,0,1,7.91-.42c1.2,1.23,1.59,2.53,1.59,5.85V81.5h-8.66Zm5.71-4.73a3,3,0,0,0-2.51-1.23c-2,0-3.09,1.45-3.2,4.32h6.35A6,6,0,0,0,109.89,76.77Z" transform="translate(-2.65 -2.71)"/><path d="M121.91,75.85H119v8.94c0,1.53.42,2.06,1.78,2.06a2.76,2.76,0,0,0,1.36-.28L122.47,88a5.14,5.14,0,0,1-2.45.56,4,4,0,0,1-1.81-.39c-1-.47-1.34-1.36-1.34-2.76V75.85h-1.81V74.21h1.81c0-1.2.17-3.06,0.22-3.51l2.28-.5a37,37,0,0,0-.28,4h3.48Z" transform="translate(-2.65 -2.71)"/></svg>